<svg id="Capa_1" enable-background="new 0 0 512 512" height="512" viewBox="0 0 512 512" width="512" xmlns="http://www.w3.org/2000/svg" xmlns:xlink="http://www.w3.org/1999/xlink"><linearGradient id="SVGID_1_" gradientUnits="userSpaceOnUse" x1="256" x2="256" y1="512" y2="0"><stop offset="0" stop-color="#00b59c"/><stop offset="1" stop-color="#9cffac"/></linearGradient><linearGradient id="SVGID_2_" gradientUnits="userSpaceOnUse" x1="256" x2="256" y1="437" y2="227"><stop offset="0" stop-color="#9bff9d"/><stop offset=".9973" stop-color="#e2ffea"/><stop offset="1" stop-color="#e2ffea"/></linearGradient><g><path d="m421 163.5c-.901-7.5-7.2-13.5-15-13.5h-45.934c-4.757-85.104-48.461-150-104.066-150s-99.309 64.896-104.066 150h-45.934c-7.8 0-14.099 6-15 13.5l-27.001 299.3c-1.197 12.599 3 25.2 11.701 34.5 8.401 9.3 20.398 14.7 33.003 14.7h294.595c12.605 0 24.602-5.4 33.003-14.7 8.701-9.3 12.898-21.901 11.7-34.501zm-165-133.5c37.822 0 69.792 53.643 74.128 120h-148.256c4.336-66.357 36.306-120 74.128-120z" fill="url(#SVGID_1_)"/><g><g><path d="m346 227h-45v90c0 9.427-9.466 18.699-21.599 13.5l-23.401-11.7-23.401 11.7c-4.497 2.1-10.199 2.1-14.399-.601-4.497-3-7.2-7.8-7.2-12.9v-90h-45c-8.401 0-15 6.599-15 15v180c0 8.401 6.599 15 15 15h180c8.401 0 15-6.599 15-15v-179.999c0-8.401-6.599-15-15-15z" fill="url(#SVGID_2_)"/></g></g></g></svg>